<svg width="45" height="45" viewBox="0 0 45 45" fill="none" xmlns="http://www.w3.org/2000/svg">
<g clip-path="url(#clip0_120_62361)">
<rect width="45" height="45" rx="8" fill="#ECF6FF"/>
<path d="M13.3333 27.9999V23.4166C13.3333 23.0041 13.4173 22.6298 13.5853 22.2937C13.7534 21.9576 13.9749 21.6596 14.2499 21.3999V18.8333C14.2499 18.0694 14.5173 17.4201 15.052 16.8853C15.5867 16.3506 16.236 16.0833 16.9999 16.0833H20.6666C21.018 16.0833 21.3464 16.1483 21.652 16.2785C21.9576 16.4087 22.2402 16.588 22.4999 16.8166C22.7596 16.5874 23.0423 16.4081 23.3478 16.2785C23.6534 16.1489 23.9819 16.0839 24.3333 16.0833H27.9999C28.7638 16.0833 29.4131 16.3506 29.9478 16.8853C30.4826 17.4201 30.7499 18.0694 30.7499 18.8333V21.3999C31.0249 21.6596 31.2464 21.9576 31.4145 22.2937C31.5826 22.6298 31.6666 23.0041 31.6666 23.4166V27.9999C31.6666 28.2596 31.5786 28.4775 31.4026 28.6535C31.2266 28.8295 31.009 28.9172 30.7499 28.9166C30.4908 28.916 30.2733 28.828 30.0973 28.6526C29.9213 28.4772 29.8333 28.2596 29.8333 27.9999V27.0833H15.1666V27.9999C15.1666 28.2596 15.0786 28.4775 14.9026 28.6535C14.7266 28.8295 14.509 28.9172 14.2499 28.9166C13.9908 28.916 13.7733 28.828 13.5973 28.6526C13.4213 28.4772 13.3333 28.2596 13.3333 27.9999ZM23.4166 20.6666H28.9166V18.8333C28.9166 18.5735 28.8286 18.356 28.6526 18.1806C28.4766 18.0052 28.259 17.9172 27.9999 17.9166H24.3333C24.0735 17.9166 23.856 18.0046 23.6806 18.1806C23.5052 18.3566 23.4172 18.5741 23.4166 18.8333V20.6666ZM16.0833 20.6666H21.5833V18.8333C21.5833 18.5735 21.4953 18.356 21.3193 18.1806C21.1433 18.0052 20.9257 17.9172 20.6666 17.9166H16.9999C16.7402 17.9166 16.5226 18.0046 16.3473 18.1806C16.1719 18.3566 16.0839 18.5741 16.0833 18.8333V20.6666Z" fill="#307DB9"/>
</g>
<defs>
<clipPath id="clip0_120_62361">
<rect width="45" height="45" fill="white"/>
</clipPath>
</defs>
</svg>
