<svg width="45" height="45" viewBox="0 0 45 45" fill="none" xmlns="http://www.w3.org/2000/svg">
<g clip-path="url(#clip0_120_62350)">
<rect width="45" height="45" rx="8" fill="#ECF6FF"/>
<path d="M17.8087 15.625C17.434 15.625 17.1841 16 17.1841 16.25V19.375H15.935V16.25C15.935 15.875 15.6851 15.625 15.3104 15.625C14.9356 15.625 14.6858 16 14.6858 16.25V19.375H13.4367V16.25C13.4367 15.875 13.1868 15.625 12.8121 15.625C12.4373 15.625 12.1875 16 12.1875 16.25V20.375C12.1875 21.5 13.0619 22.375 14.0612 22.5V31.25C14.0612 32 14.5609 32.5 15.3104 32.5C16.0599 32.5 16.5595 32 16.5595 31.25V22.5C17.5589 22.375 18.4333 21.5 18.4333 20.375V16.25C18.4333 16 18.1834 15.625 17.8087 15.625ZM20.307 16.25V23.75H21.5562V31.25C21.5562 32 22.0558 32.5 22.8053 32.5C23.5548 32.5 24.0545 32 24.0545 31.25V12.5C21.9309 12.5 20.307 14.125 20.307 16.25ZM29.0511 15C27.3023 15 25.9282 16.875 25.9282 19.125C25.8033 20.625 26.5528 22 27.8019 22.875V31.25C27.8019 32 28.3016 32.5 29.0511 32.5C29.8006 32.5 30.3002 32 30.3002 31.25V22.875C31.5494 22 32.2989 20.625 32.174 19.125C32.174 16.875 30.7999 15 29.0511 15Z" fill="#307DB9"/>
</g>
<defs>
<clipPath id="clip0_120_62350">
<rect width="45" height="45" fill="white"/>
</clipPath>
</defs>
</svg>
