<svg width="16" height="16" viewBox="0 0 16 16" fill="none" xmlns="http://www.w3.org/2000/svg">
<path d="M13.3334 6.66659C13.3334 10.6666 8.00008 14.6666 8.00008 14.6666C8.00008 14.6666 2.66675 10.6666 2.66675 6.66659C2.66675 5.2521 3.22865 3.89554 4.22885 2.89535C5.22904 1.89516 6.58559 1.33325 8.00008 1.33325C9.41457 1.33325 10.7711 1.89516 11.7713 2.89535C12.7715 3.89554 13.3334 5.2521 13.3334 6.66659Z" stroke="white" stroke-width="1.33333" stroke-linecap="round" stroke-linejoin="round"/>
<path d="M8.00008 8.66659C9.10465 8.66659 10.0001 7.77115 10.0001 6.66659C10.0001 5.56202 9.10465 4.66659 8.00008 4.66659C6.89551 4.66659 6.00008 5.56202 6.00008 6.66659C6.00008 7.77115 6.89551 8.66659 8.00008 8.66659Z" stroke="white" stroke-width="1.33333" stroke-linecap="round" stroke-linejoin="round"/>
</svg>
