<svg width="45" height="45" viewBox="0 0 45 45" fill="none" xmlns="http://www.w3.org/2000/svg">
<g clip-path="url(#clip0_120_62355)">
<rect width="45" height="45" rx="8" fill="#ECF6FF"/>
<g clip-path="url(#clip1_120_62355)">
<path d="M21.7978 14.0341C22.0188 13.322 22.9812 13.322 23.2022 14.0341L24.8206 19.2494C24.9195 19.5679 25.203 19.7835 25.5228 19.7835H30.7603C31.4755 19.7835 31.7729 20.7418 31.1942 21.1819L26.957 24.4051C26.6983 24.602 26.59 24.9509 26.6888 25.2694L28.3073 30.4846C28.5283 31.1968 27.7498 31.789 27.1712 31.3489L22.934 28.1257C22.6752 27.9288 22.3248 27.9288 22.066 28.1257L17.8288 31.3489C17.2502 31.789 16.4717 31.1968 16.6927 30.4846L18.3112 25.2694C18.41 24.9509 18.3017 24.602 18.043 24.4051L13.8058 21.1819C13.2271 20.7418 13.5245 19.7835 14.2397 19.7835H19.4772C19.797 19.7835 20.0805 19.5679 20.1794 19.2494L21.7978 14.0341Z" fill="#307DB9"/>
</g>
</g>
<defs>
<clipPath id="clip0_120_62355">
<rect width="45" height="45" fill="white"/>
</clipPath>
<clipPath id="clip1_120_62355">
<rect width="18" height="18" fill="white" transform="translate(13.5 13.5)"/>
</clipPath>
</defs>
</svg>
